<svg xmlns="http://www.w3.org/2000/svg" viewBox="0 0 506.08 96.5"><defs><style>.cls-1{fill:#ffda44;}.cls-2{fill:#d80027;}.cls-3{fill:#efecec;}.cls-4{fill:#3757a6;}.cls-5{fill:#4166af;}.cls-6{fill:#efefef;}.cls-7{fill:#f0f0f0;}.cls-8{fill:#0052b4;}.cls-9{font-size:36px;fill:#336;font-family:Poppins-SemiBold, Poppins;font-weight:600;}.cls-10{font-size:24px;opacity:0.43;}</style></defs><g id="Layer_2" data-name="Layer 2"><g id="Footer"><g id="BezzLab"><path class="cls-1" d="M397.15,23.53a16.83,16.83,0,0,0,31.55,0l-15.77-1.46Z"/><path d="M412.93.86a16.84,16.84,0,0,0-15.78,11l15.78,1.46,15.77-1.46A16.83,16.83,0,0,0,412.93.86Z"/><path class="cls-2" d="M397.15,11.83a17,17,0,0,0,0,11.7H428.7a17,17,0,0,0,0-11.7Z"/><path class="cls-3" d="M451.83,7Z"/><path class="cls-4" d="M442.25,30.11h0Z"/><path class="cls-3" d="M457.11,9.76h7.39a15.24,15.24,0,0,0-3.12-3.39H455.9A17,17,0,0,1,457.11,9.76Z"/><path class="cls-3" d="M458,16.54H467a15.34,15.34,0,0,0-.78-3.39h-8.45C457.9,14.25,458,15.39,458,16.54Z"/><path class="cls-3" d="M457.76,23.33h8.45a15.28,15.28,0,0,0,.77-3.4H458C458,21.09,457.9,22.23,457.76,23.33Z"/><path class="cls-3" d="M455.91,30.11h5.5a15.37,15.37,0,0,0,3.1-3.39h-7.39A18.35,18.35,0,0,1,455.91,30.11Z"/><path class="cls-4" d="M455.42,6.37h6A15.13,15.13,0,0,0,451.83,3h-.05C453.51,3,454.4,4.31,455.42,6.37Z"/><path class="cls-4" d="M457.35,13.15h8.85a15.16,15.16,0,0,0-1.7-3.39h-7.8A30,30,0,0,1,457.35,13.15Z"/><path class="cls-4" d="M467,16.54h-9.39c0,1.13,0,2.27,0,3.39H467a15.47,15.47,0,0,0,.1-1.68A16,16,0,0,0,467,16.54Z"/><path class="cls-4" d="M456.63,26.72h7.88a15.59,15.59,0,0,0,1.7-3.39h-8.94A30.45,30.45,0,0,1,456.63,26.72Z"/><path class="cls-4" d="M451.78,33.5h.05a15.17,15.17,0,0,0,9.58-3.39h-6C454.44,32.18,453.52,33.49,451.78,33.5Z"/><path class="cls-5" d="M455.9,6.37c-1-2.06-2.39-3.36-4.12-3.37a15.18,15.18,0,0,0-9.51,3.37Z"/><path class="cls-6" d="M455.9,6.37H442.27a15.2,15.2,0,0,0-3.11,3.39h17.95A17,17,0,0,0,455.9,6.37Z"/><path class="cls-5" d="M457.11,9.76H439.16a15.19,15.19,0,0,0-1.71,3.39h20.3A27.94,27.94,0,0,0,457.11,9.76Z"/><path class="cls-6" d="M437.45,13.15a15.32,15.32,0,0,0-.77,3.39H458c-.05-1.15-.14-2.29-.29-3.39Z"/><path class="cls-5" d="M436.58,18.25h0a15.48,15.48,0,0,0,.09,1.68H458c0-1.12,0-2.26,0-3.39H436.68A13.78,13.78,0,0,0,436.58,18.25Z"/><path class="cls-6" d="M437.45,23.33h20.31c.14-1.1.24-2.24.28-3.4H436.67A15.3,15.3,0,0,0,437.45,23.33Z"/><path class="cls-5" d="M439.15,26.72h18a30.45,30.45,0,0,0,.64-3.39H437.45A15.16,15.16,0,0,0,439.15,26.72Z"/><path class="cls-6" d="M439.15,26.72a15.33,15.33,0,0,0,3.09,3.39h13.67a18.35,18.35,0,0,0,1.21-3.39Z"/><path class="cls-5" d="M451.78,33.5c1.74,0,3.11-1.32,4.13-3.39H442.25A15.17,15.17,0,0,0,451.78,33.5Z"/><path class="cls-4" d="M451.83,3a15.25,15.25,0,0,0-15.25,15.25l.09,1.68h15.16Z"/><path class="cls-4" d="M443,5.85a15.39,15.39,0,0,0-3.8,3.92H443Z"/><path class="cls-4" d="M437.46,13.14a15.2,15.2,0,0,0-.88,5.11l.09,1.68H443V13.14Z"/><path class="cls-4" d="M451.83,9.77V3a15.24,15.24,0,0,0-5.51,1V9.77Z"/><rect class="cls-4" x="446.32" y="13.14" width="5.51" height="6.8"/><path class="cls-6" d="M446.32,9.77V4A15.19,15.19,0,0,0,443,5.85V9.77h-3.8a14.77,14.77,0,0,0-1.69,3.37H443v6.91h3.37V13.14h5.51V9.77Z"/><circle class="cls-7" cx="330.58" cy="17" r="15.5"/><path class="cls-2" d="M346.08,17A15.52,15.52,0,0,0,336,2.46V31.54A15.52,15.52,0,0,0,346.08,17Z"/><path class="cls-8" d="M315.08,17a15.51,15.51,0,0,0,10.11,14.54V2.46A15.51,15.51,0,0,0,315.08,17Z"/><path class="cls-7" d="M262.1,22.29a15.62,15.62,0,0,0,0-10.89L247.42,10,232.74,11.4a15.62,15.62,0,0,0,0,10.89l14.68,1.36Z"/><path class="cls-2" d="M247.42,32.5A15.66,15.66,0,0,0,262.1,22.29H232.74A15.66,15.66,0,0,0,247.42,32.5Z"/><path class="cls-2" d="M247.42,1.19A15.66,15.66,0,0,0,232.74,11.4H262.1A15.66,15.66,0,0,0,247.42,1.19Z"/><circle class="cls-8" cx="289.33" cy="16.75" r="16.75"/><polygon class="cls-1" points="289.33 6.55 289.87 8.22 291.63 8.22 290.2 9.26 290.75 10.92 289.33 9.89 287.91 10.92 288.45 9.26 287.03 8.22 288.79 8.22 289.33 6.55"/><polygon class="cls-1" points="282.12 9.54 283.68 10.34 284.92 9.1 284.65 10.83 286.21 11.63 284.48 11.9 284.2 13.63 283.41 12.07 281.67 12.35 282.92 11.1 282.12 9.54"/><polygon class="cls-1" points="279.13 16.75 280.8 16.21 280.8 14.45 281.83 15.87 283.5 15.33 282.47 16.75 283.5 18.17 281.83 17.63 280.8 19.05 280.8 17.29 279.13 16.75"/><polygon class="cls-1" points="282.12 23.96 282.92 22.4 281.67 21.16 283.41 21.43 284.2 19.87 284.48 21.6 286.21 21.87 284.65 22.67 284.92 24.4 283.68 23.16 282.12 23.96"/><polygon class="cls-1" points="289.33 26.95 288.79 25.28 287.03 25.28 288.45 24.25 287.91 22.58 289.33 23.61 290.75 22.58 290.2 24.25 291.63 25.28 289.87 25.28 289.33 26.95"/><polygon class="cls-1" points="296.54 23.96 294.97 23.16 293.73 24.4 294.01 22.67 292.44 21.87 294.18 21.6 294.45 19.87 295.25 21.43 296.98 21.16 295.74 22.4 296.54 23.96"/><polygon class="cls-1" points="299.52 16.75 297.86 17.29 297.86 19.05 296.82 17.63 295.15 18.17 296.19 16.75 295.15 15.33 296.82 15.87 297.86 14.45 297.86 16.21 299.52 16.75"/><polygon class="cls-1" points="296.54 9.54 295.74 11.1 296.98 12.35 295.25 12.07 294.45 13.63 294.18 11.9 292.44 11.63 294.01 10.83 293.73 9.1 294.97 10.34 296.54 9.54"/><circle class="cls-7" cx="371.29" cy="17.71" r="15.79"/><path class="cls-8" d="M358.77,8.1a15.92,15.92,0,0,0-2.72,5.5h8.21Z"/><path class="cls-8" d="M386.53,13.6a15.74,15.74,0,0,0-2.72-5.5l-5.49,5.5Z"/><path class="cls-8" d="M356.05,21.83a15.92,15.92,0,0,0,2.72,5.5l5.49-5.5Z"/><path class="cls-8" d="M380.9,5.19a15.78,15.78,0,0,0-5.49-2.72v8.21Z"/><path class="cls-8" d="M361.68,30.24A15.87,15.87,0,0,0,367.17,33V24.74Z"/><path class="cls-8" d="M367.17,2.47a15.87,15.87,0,0,0-5.49,2.72l5.49,5.49Z"/><path class="cls-8" d="M375.41,33a15.78,15.78,0,0,0,5.49-2.72l-5.49-5.5V33Z"/><path class="cls-8" d="M378.32,21.83l5.49,5.5a15.74,15.74,0,0,0,2.72-5.5Z"/><path class="cls-2" d="M386.94,15.66H373.35V2.06a16.39,16.39,0,0,0-4.12,0v13.6H355.64a16.31,16.31,0,0,0,0,4.11h13.59v13.6a16.39,16.39,0,0,0,4.12,0V19.77h13.59a15.15,15.15,0,0,0,0-4.11Z"/><path class="cls-2" d="M375.41,21.83h0l7,7.05q.49-.49.93-1l-6-6Z"/><path class="cls-2" d="M367.17,21.83h0l-7,7.05c.32.32.66.63,1,.92l6-6V21.83Z"/><path class="cls-2" d="M367.17,13.6h0l-7-7c-.32.33-.63.66-.93,1l6,6Z"/><path class="cls-2" d="M375.41,13.6h0l7-7c-.32-.32-.66-.63-1-.93l-6,6Z"/><circle class="cls-2" cx="490.08" cy="17.5" r="16"/><polygon class="cls-7" points="489.42 14.57 490.74 16.38 492.86 15.69 491.55 17.5 492.86 19.31 490.73 18.62 489.42 20.43 489.42 18.19 487.3 17.5 489.42 16.81 489.42 14.57"/><path class="cls-7" d="M485.84,22a4.52,4.52,0,1,1,0-9,4.57,4.57,0,0,1,2.15.54,5.57,5.57,0,1,0,0,8A4.57,4.57,0,0,1,485.84,22Z"/><text class="cls-9" transform="translate(0 30.69)">Bessant Lab<tspan class="cls-10"><tspan x="0" y="28.8">@bezzlab</tspan></tspan></text></g></g></g></svg>