<svg xmlns="http://www.w3.org/2000/svg" viewBox="0 0 42.64 47"><defs><style>.cls-1{fill:#336;}</style></defs><g id="Layer_2" data-name="Layer 2"><g id="Layer_1-2" data-name="Layer 1"><path class="cls-1" d="M40.46,8.86V5.64a2.87,2.87,0,1,0-1.37,0V8.86a2.85,2.85,0,0,0-1.9,4l-2.81,2.2a2.85,2.85,0,0,0-1.55-.46,2.88,2.88,0,0,0-1.29.3L25,11.21a3,3,0,0,0,0-.43,2.86,2.86,0,0,0-5.72,0,3,3,0,0,0,0,.43l-2.13,1.21a.69.69,0,0,0,.68,1.2l2-1.13a2.85,2.85,0,0,0,2.29,1.16,2.88,2.88,0,0,0,2.3-1.16l6,3.38A2.79,2.79,0,0,0,30,17.46a2.86,2.86,0,0,0,2.17,2.78V26.1A2.84,2.84,0,0,0,30,28.87a2.9,2.9,0,0,0,.39,1.46l-5.88,3.33a2.88,2.88,0,0,0-2.3-1.16,2.85,2.85,0,0,0-2.29,1.16l-5.82-3.29a2.84,2.84,0,0,0-1.75-4.27V20.24a2.87,2.87,0,0,0,2.18-2.78A2.84,2.84,0,0,0,14,15.83l1.14-.65a.69.69,0,0,0-.67-1.2l-1.59.9a2.82,2.82,0,0,0-1.24-.28A2.86,2.86,0,0,0,11,20.24V26.1a2.85,2.85,0,0,0-2.09,2.09H5.64a2.87,2.87,0,1,0,0,1.37H8.86a2.86,2.86,0,0,0,2.77,2.18A2.93,2.93,0,0,0,13,31.37l6.31,3.57a3,3,0,0,0,0,.43,2.86,2.86,0,0,0,2.17,2.77v3.22a2.86,2.86,0,1,0,1.38,0V38.14A2.85,2.85,0,0,0,25,35.37a3,3,0,0,0,0-.43l6.36-3.6a2.9,2.9,0,0,0,1.46.4,2.82,2.82,0,0,0,1.26-.3l2.3,2.3a2.91,2.91,0,0,0,0,3L34,39.06a2.88,2.88,0,1,0,.94,1l2.4-2.4a2.86,2.86,0,0,0,3.5-.43,3,3,0,0,0,.54-.74.7.7,0,0,0-.31-.93.69.69,0,0,0-.92.31,1.39,1.39,0,0,1-.28.39,1.49,1.49,0,0,1-1,.44,1.48,1.48,0,0,1-1.05-.44,1.49,1.49,0,0,1,0-2.1h0A1.47,1.47,0,0,1,39.62,34a.69.69,0,0,0,.94-.23.69.69,0,0,0-.23-.95,2.86,2.86,0,0,0-3,0l-2.22-2.22a2.86,2.86,0,0,0-1.63-4.45V20.24a2.87,2.87,0,0,0,1.81-4.18l2.73-2.14a2.84,2.84,0,0,0,1.71.58,2.86,2.86,0,0,0,.69-5.64ZM22.18,12.27a1.49,1.49,0,1,1,1.49-1.49A1.49,1.49,0,0,1,22.18,12.27Zm-12,5.19a1.49,1.49,0,1,1,1.48,1.48A1.49,1.49,0,0,1,10.15,17.46ZM2.86,30.36a1.49,1.49,0,1,1,1.49-1.49A1.49,1.49,0,0,1,2.86,30.36Zm7.29-1.49a1.49,1.49,0,0,1,3,0,1.51,1.51,0,0,1-1.49,1.49,1.49,1.49,0,0,1-1.48-1.49ZM23.67,44.14a1.49,1.49,0,1,1-1.49-1.49A1.49,1.49,0,0,1,23.67,44.14Zm-1.49-7.29a1.49,1.49,0,1,1,1.49-1.48A1.48,1.48,0,0,1,22.18,36.85Zm11.35,5.66a1.48,1.48,0,0,1-2.1-2.1,1.46,1.46,0,0,1,1-.43,1.48,1.48,0,0,1,1.05,2.53ZM38.29,2.86a1.49,1.49,0,0,1,3,0,1.49,1.49,0,1,1-3,0Zm-4,26a1.51,1.51,0,0,1-1.48,1.49,1.49,1.49,0,1,1,0-3,1.48,1.48,0,0,1,1.48,1.48Zm-1.48-9.93a1.49,1.49,0,1,1,1.48-1.48A1.49,1.49,0,0,1,32.83,18.94Zm6.94-5.82a1.49,1.49,0,1,1,1.49-1.49A1.49,1.49,0,0,1,39.77,13.12Z"/></g></g></svg>