<svg xmlns="http://www.w3.org/2000/svg" viewBox="0 0 39.66 42.63"><defs><style>.cls-1{fill:#336;}</style></defs><g id="Layer_2" data-name="Layer 2"><g id="Layer_1-2" data-name="Layer 1"><path class="cls-1" d="M19.9,16.37a4.95,4.95,0,1,0,4.94,4.95A4.94,4.94,0,0,0,19.9,16.37Zm0,8.63a3.69,3.69,0,1,1,3.68-3.68h0A3.68,3.68,0,0,1,19.9,25Z"/><path class="cls-1" d="M22.06,20.69a.63.63,0,0,0-.63.63,1.57,1.57,0,0,1-.77,1.32.62.62,0,0,0-.22.86.63.63,0,0,0,.86.23h0a2.8,2.8,0,0,0,1.38-2.41A.63.63,0,0,0,22.06,20.69Z"/><path class="cls-1" d="M36.17,19.84a2.75,2.75,0,0,0,.7.1,2.79,2.79,0,0,0,2.79-2.79,2.75,2.75,0,0,0-.82-2,.86.86,0,0,0-.14-.13,5.57,5.57,0,0,0-.34-4.39C36.85,8,32.88,7.18,27.43,8.26,25.64,3,22.92,0,19.9,0s-5.75,3-7.54,8.27C6.91,7.18,3,8,1.44,10.66A5.54,5.54,0,0,0,1.07,15,2.79,2.79,0,0,0,3.6,19.82c.38.49.78,1,1.23,1.5-3.66,4.17-4.9,8-3.39,10.65,1.08,1.88,3.43,2.86,6.68,2.86a22.46,22.46,0,0,0,4.24-.46c1.79,5.25,4.52,8.26,7.54,8.26a5.63,5.63,0,0,0,3.92-1.84,2.78,2.78,0,0,0,3.08-4.52.86.86,0,0,0-.14-.13c.24-.56.46-1.15.68-1.77a22.27,22.27,0,0,0,4.23.46c3.26,0,5.6-1,6.69-2.86,1.51-2.61.27-6.48-3.39-10.65C35.39,20.83,35.79,20.34,36.17,19.84ZM38,18.23a1.52,1.52,0,0,1-2.16,0h0a1.53,1.53,0,1,1,2.16,0Zm-.68-6.94a4.26,4.26,0,0,1,.29,3.16,2.79,2.79,0,0,0-2.66,4.67.86.86,0,0,0,.14.13c-.29.38-.6.76-.92,1.13a38.72,38.72,0,0,0-5-4.37,38.36,38.36,0,0,0-1.27-6.54c4.74-.92,8.25-.25,9.45,1.82ZM26.58,32.89a34.52,34.52,0,0,1-5.13-1.67c1.07-.51,2.14-1.08,3.19-1.68s2.08-1.26,3.06-1.93A35.16,35.16,0,0,1,26.58,32.89Zm-13.37,0a36.45,36.45,0,0,1-1.12-5.28c1,.67,2,1.31,3.06,1.93s2.12,1.17,3.2,1.68a34.64,34.64,0,0,1-5.14,1.67Zm0-23.15a35.85,35.85,0,0,1,5.14,1.67c-1.08.52-2.15,1.08-3.2,1.69S13.07,14.35,12.09,15a36.73,36.73,0,0,1,1.12-5.28ZM10.54,24.93a35.24,35.24,0,0,1-4-3.61,34.32,34.32,0,0,1,4-3.61c-.09,1.18-.13,2.39-.13,3.61S10.45,23.74,10.54,24.93Zm5.24,3.51a44.51,44.51,0,0,1-3.88-2.51c-.15-1.5-.23-3.05-.23-4.61s.08-3.11.23-4.62a44.51,44.51,0,0,1,3.88-2.51c1.35-.78,2.74-1.49,4.12-2.12,1.38.63,2.76,1.34,4.11,2.12A44.69,44.69,0,0,1,27.9,16.7c.15,1.51.23,3.06.23,4.62s-.08,3.11-.23,4.61A44.69,44.69,0,0,1,24,28.44c-1.35.78-2.73,1.49-4.11,2.12-1.39-.63-2.77-1.34-4.12-2.12ZM26.59,9.74A36.42,36.42,0,0,1,27.7,15q-1.47-1-3.06-1.92c-1.05-.61-2.12-1.17-3.19-1.69a35.72,35.72,0,0,1,5.13-1.67Zm2.66,8a35.24,35.24,0,0,1,4,3.61,36.21,36.21,0,0,1-4,3.61c.09-1.19.14-2.4.14-3.61S29.34,18.89,29.25,17.71ZM19.9,1.26c2.38,0,4.71,2.71,6.3,7.28a37.74,37.74,0,0,0-6.3,2.15,38.37,38.37,0,0,0-6.3-2.15C15.18,4,17.51,1.26,19.9,1.26Zm-18.2,17h0a1.53,1.53,0,0,1,2.17-2.17A1.53,1.53,0,1,1,1.7,18.23Zm3.06-3.05a2.79,2.79,0,0,0-2.53-.76,4.18,4.18,0,0,1,.3-3.13C3.72,9.22,7.23,8.55,12,9.47A39.36,39.36,0,0,0,10.7,16a38,38,0,0,0-5,4.37c-.35-.4-.68-.81-1-1.21l.06-.05a2.8,2.8,0,0,0,0-3.94ZM2.53,31.34c-1.2-2.06,0-5.44,3.15-9.09a37.27,37.27,0,0,0,5,4.37A39.16,39.16,0,0,0,12,33.16c-4.74.92-8.25.26-9.44-1.82Zm23.48,8a1.53,1.53,0,1,1,.45-1.08A1.52,1.52,0,0,1,26,39.32Zm-1.07-3.87A2.79,2.79,0,0,0,22.8,40a4.24,4.24,0,0,1-2.9,1.34c-2.39,0-4.72-2.71-6.3-7.27a39,39,0,0,0,6.3-2.16,38.71,38.71,0,0,0,6.3,2.16c-.18.5-.36,1-.55,1.44a2.84,2.84,0,0,0-.72-.09Zm12.33-4.11c-1.2,2.08-4.7,2.74-9.45,1.82a38.18,38.18,0,0,0,1.27-6.54,37.27,37.27,0,0,0,5-4.37c3.17,3.65,4.35,7,3.16,9.09Z"/></g></g></svg>