<svg xmlns="http://www.w3.org/2000/svg" viewBox="0 0 36.67 36.67"><defs><style>.cls-1{fill:#336;}</style></defs><g id="Layer_2" data-name="Layer 2"><g id="Layer_1-2" data-name="Layer 1"><path class="cls-1" d="M32.39,28.11a4.29,4.29,0,0,0-4.28,4.22L8.55,30.61a.43.43,0,0,1,0-.05,4.27,4.27,0,0,0-1.65-3.37l3.24-7.56a4.27,4.27,0,0,0,6.35-3.74,4.08,4.08,0,0,0-.35-1.68l9.9-6.6a4.24,4.24,0,0,0,2.67,1,4.28,4.28,0,1,0-4.23-4.89h-16a4.28,4.28,0,1,0,0,1.22h16A4.35,4.35,0,0,0,25.2,6.7l-9.68,6.46a4.28,4.28,0,1,0-6.37,5.7L5.84,26.58a4.27,4.27,0,1,0,2.53,5.24l19.91,1.76a4.28,4.28,0,1,0,4.11-5.47ZM28.72,1.22a3.06,3.06,0,1,1-3,3.06A3.06,3.06,0,0,1,28.72,1.22ZM4.28,7.33a3.06,3.06,0,1,1,3.05-3A3.06,3.06,0,0,1,4.28,7.33Zm7.94,5.5a3.06,3.06,0,1,1-3.05,3.06A3.06,3.06,0,0,1,12.22,12.83ZM4.28,33.61a3.06,3.06,0,1,1,3.05-3.05A3.06,3.06,0,0,1,4.28,33.61Zm28.11,1.83a3.06,3.06,0,1,1,3-3A3.06,3.06,0,0,1,32.39,35.44Z"/></g></g></svg>