<svg xmlns="http://www.w3.org/2000/svg" viewBox="0 0 40.3 40.3"><defs><style>.cls-1{fill:#336;}</style></defs><g id="Layer_2" data-name="Layer 2"><g id="Layer_1-2" data-name="Layer 1"><path class="cls-1" d="M.51,38.32,2,39.78a1.76,1.76,0,0,0,2.49,0l8-8a1.75,1.75,0,0,0,.47-1.61l1.6-1.6a16,16,0,0,0,8.37,3.29.59.59,0,1,0,.1-1.17,14.79,14.79,0,1,1,2.65,0,.59.59,0,0,0,.06,1.17h.05a16,16,0,1,0-14-6.1l-1.6,1.6a1.74,1.74,0,0,0-1.61.47l-8,8a1.77,1.77,0,0,0,0,2.49Zm12-11.66a15.6,15.6,0,0,0,1.15,1.15l-1.33,1.33L11.16,28Zm-3.14,2a.57.57,0,0,1,.82,0h0l1.46,1.46h0a.57.57,0,0,1,0,.82l-1.26,1.26L8.09,29.93Zm-8,8,5.9-5.91L9.54,33,3.63,39a.59.59,0,0,1-.82,0L1.35,37.48A.56.56,0,0,1,1.35,36.67Z"/><path class="cls-1" d="M29.79,8.11V7a.59.59,0,0,0-.59-.59.6.6,0,0,0-.59.59v.83H20.07V7a.6.6,0,0,0-1.19,0V8.11A9.4,9.4,0,0,0,23.15,16a9.41,9.41,0,0,0-4.27,7.87V25a.6.6,0,0,0,1.19,0v-.82h8.54V25a.59.59,0,0,0,.59.59.58.58,0,0,0,.59-.59V23.85A9.37,9.37,0,0,0,25.52,16a9.37,9.37,0,0,0,4.27-7.87ZM20.11,9h8.46a9.31,9.31,0,0,1-.24,1.3h-8A8.05,8.05,0,0,1,20.11,9Zm1.38,3.79a8.79,8.79,0,0,1-.73-1.31h7.15a7.3,7.3,0,0,1-.73,1.31ZM28.57,23H20.11a8.17,8.17,0,0,1,.24-1.31h8A9.45,9.45,0,0,1,28.57,23Zm-1.39-3.8a7.66,7.66,0,0,1,.73,1.31H20.76a9.31,9.31,0,0,1,.73-1.31ZM26.2,18H22.48a8,8,0,0,1,1.86-1.38A8.25,8.25,0,0,1,26.2,18Zm-1.86-2.71a8.07,8.07,0,0,1-1.86-1.39H26.2a8.29,8.29,0,0,1-1.86,1.39Z"/><path class="cls-1" d="M36.12,14.33a.59.59,0,0,0,.67.5.58.58,0,0,0,.5-.66,13.05,13.05,0,1,0-3.7,11,13.14,13.14,0,0,0,3.78-8.16.58.58,0,0,0-.54-.63.59.59,0,0,0-.64.54,11.9,11.9,0,1,1-.07-2.63Z"/></g></g></svg>