<svg xmlns="http://www.w3.org/2000/svg" viewBox="0 0 48 48"><defs><style>.cls-1{fill:#336;}</style></defs><g id="Layer_2" data-name="Layer 2"><g id="Layer_1-2" data-name="Layer 1"><g id="Page-1"><g id="_049---Group-Of-Virus_" data-name="049---Group-Of-Virus&apos;"><path id="Shape" class="cls-1" d="M47.2,12.8H44.76a10.22,10.22,0,0,0-1-3.68l2.11-1.23a.79.79,0,0,0,.41-.69.8.8,0,0,0-1.21-.69L43,7.73A10.2,10.2,0,0,0,40.27,5l1.22-2.11a.8.8,0,0,0-.69-1.21.79.79,0,0,0-.69.41L38.88,4.23a10.22,10.22,0,0,0-3.68-1V.8a.8.8,0,0,0-1.6,0V3.24a10.22,10.22,0,0,0-3.68,1L28.69,2.12A.79.79,0,0,0,28,1.71a.8.8,0,0,0-.69,1.21L28.53,5a10.2,10.2,0,0,0-2.7,2.7L23.72,6.51a.8.8,0,0,0-1.21.69.79.79,0,0,0,.41.69L25,9.12a10.22,10.22,0,0,0-1,3.68H21.6a.8.8,0,0,0,0,1.6H24a10.22,10.22,0,0,0,1,3.68l-2.11,1.23a.79.79,0,0,0-.41.69.8.8,0,0,0,1.21.69l2.11-1.22a10.2,10.2,0,0,0,2.7,2.7l-1.22,2.11A.8.8,0,0,0,28,25.49a.79.79,0,0,0,.69-.41L29.92,23a10.22,10.22,0,0,0,3.68,1V26.4a.8.8,0,1,0,1.6,0V24a10.22,10.22,0,0,0,3.68-1l1.23,2.11a.79.79,0,0,0,.69.41.8.8,0,0,0,.69-1.21l-1.22-2.11a10.2,10.2,0,0,0,2.7-2.7l2.11,1.22A.8.8,0,0,0,46.29,20a.79.79,0,0,0-.41-.69l-2.11-1.23a10.22,10.22,0,0,0,1-3.68H47.2a.8.8,0,1,0,0-1.6ZM34.4,22.4a8.8,8.8,0,1,1,8.8-8.8A8.8,8.8,0,0,1,34.4,22.4Z"/><path id="Shape-2" data-name="Shape" class="cls-1" d="M31.2,8.8a2.4,2.4,0,1,0,2.4,2.4A2.39,2.39,0,0,0,31.2,8.8Zm0,3.2a.8.8,0,1,1,.8-.8A.8.8,0,0,1,31.2,12Z"/><path id="Shape-3" data-name="Shape" class="cls-1" d="M37.6,12.8A3.2,3.2,0,1,0,40.8,16,3.2,3.2,0,0,0,37.6,12.8Zm0,4.8A1.6,1.6,0,1,1,39.2,16,1.6,1.6,0,0,1,37.6,17.6Z"/><circle id="Oval" class="cls-1" cx="36" cy="8.8" r="0.8"/><circle id="Oval-2" data-name="Oval" class="cls-1" cx="31.2" cy="16.8" r="0.8"/><path id="Shape-4" data-name="Shape" class="cls-1" d="M.8,30.4H3.24a10.22,10.22,0,0,0,1,3.68L2.12,35.31a.79.79,0,0,0-.41.69.8.8,0,0,0,1.21.69L5,35.47a10.2,10.2,0,0,0,2.7,2.7L6.51,40.28a.8.8,0,0,0,.69,1.21.79.79,0,0,0,.69-.41L9.12,39a10.22,10.22,0,0,0,3.68,1V42.4a.8.8,0,1,0,1.6,0V40a10.22,10.22,0,0,0,3.68-1l1.23,2.11a.79.79,0,0,0,.69.41.8.8,0,0,0,.69-1.21l-1.22-2.11a10.2,10.2,0,0,0,2.7-2.7l2.11,1.22A.8.8,0,0,0,25.49,36a.79.79,0,0,0-.41-.69L23,34.08a10.22,10.22,0,0,0,1-3.68H26.4a.8.8,0,0,0,0-1.6H24a10.22,10.22,0,0,0-1-3.68l2.11-1.23a.79.79,0,0,0,.41-.69.8.8,0,0,0-1.21-.69l-2.11,1.22a10.2,10.2,0,0,0-2.7-2.7l1.22-2.11A.8.8,0,0,0,20,17.71a.79.79,0,0,0-.69.41l-1.23,2.11a10.22,10.22,0,0,0-3.68-1V16.8a.8.8,0,0,0-1.6,0v2.44a10.22,10.22,0,0,0-3.68,1L7.89,18.12a.79.79,0,0,0-.69-.41.8.8,0,0,0-.69,1.21L7.73,21A10.2,10.2,0,0,0,5,23.73L2.92,22.51a.8.8,0,0,0-1.21.69.79.79,0,0,0,.41.69l2.11,1.23a10.22,10.22,0,0,0-1,3.68H.8a.8.8,0,1,0,0,1.6Zm12.8-9.6a8.8,8.8,0,1,1-8.8,8.8A8.8,8.8,0,0,1,13.6,20.8Z"/><path id="Shape-5" data-name="Shape" class="cls-1" d="M10.4,29.6A2.4,2.4,0,1,0,8,27.2,2.39,2.39,0,0,0,10.4,29.6Zm0-3.2a.8.8,0,1,1-.8.8A.8.8,0,0,1,10.4,26.4Z"/><path id="Shape-6" data-name="Shape" class="cls-1" d="M16.8,35.2A3.2,3.2,0,1,0,13.6,32,3.2,3.2,0,0,0,16.8,35.2Zm0-4.8A1.6,1.6,0,1,1,15.2,32,1.6,1.6,0,0,1,16.8,30.4Z"/><circle id="Oval-3" data-name="Oval" class="cls-1" cx="15.2" cy="24.8" r="0.8"/><circle id="Oval-4" data-name="Oval" class="cls-1" cx="10.4" cy="32.8" r="0.8"/><path id="Shape-7" data-name="Shape" class="cls-1" d="M47.2,38.4a.8.8,0,1,0,0-1.6H45.56a8.14,8.14,0,0,0-.67-2.48l1.42-.82a.8.8,0,0,0-.8-1.39l-1.43.83a7.82,7.82,0,0,0-1.81-1.82l.82-1.43a.8.8,0,1,0-1.38-.8l-.83,1.42a8.14,8.14,0,0,0-2.48-.67V28a.8.8,0,1,0-1.6,0v1.64a8.14,8.14,0,0,0-2.48.67l-.82-1.42a.82.82,0,0,0-.7-.41.79.79,0,0,0-.69.4.81.81,0,0,0,0,.81l.82,1.43a8.18,8.18,0,0,0-1.81,1.81l-1.43-.82a.8.8,0,1,0-.8,1.38l1.43.83a7.88,7.88,0,0,0-.68,2.48H28a.8.8,0,0,0,0,1.6h1.64a8.3,8.3,0,0,0,.67,2.48l-1.42.82a.8.8,0,0,0,0,1.39.83.83,0,0,0,.81,0l1.43-.82a7.82,7.82,0,0,0,1.82,1.81l-.83,1.43a.81.81,0,0,0,0,.81.79.79,0,0,0,.69.4.82.82,0,0,0,.7-.41l.82-1.42a8.22,8.22,0,0,0,2.48.67V47.2a.8.8,0,0,0,1.6,0V45.56a8.14,8.14,0,0,0,2.48-.67l.82,1.42a.8.8,0,0,0,1.09.29.79.79,0,0,0,.3-1.09l-.83-1.43a7.82,7.82,0,0,0,1.82-1.81l1.43.82a.8.8,0,0,0,.4.11.79.79,0,0,0,.77-.59.78.78,0,0,0-.37-.9l-1.42-.83a8.14,8.14,0,0,0,.67-2.48ZM37.6,44A6.4,6.4,0,1,1,44,37.6,6.41,6.41,0,0,1,37.6,44Z"/><circle id="Oval-5" data-name="Oval" class="cls-1" cx="38.4" cy="34.4" r="0.8"/><circle id="Oval-6" data-name="Oval" class="cls-1" cx="34.4" cy="35.2" r="0.8"/><circle id="Oval-7" data-name="Oval" class="cls-1" cx="40.8" cy="39.2" r="0.8"/><circle id="Oval-8" data-name="Oval" class="cls-1" cx="35.2" cy="40" r="0.8"/></g></g></g></g></svg>