<svg xmlns="http://www.w3.org/2000/svg" viewBox="0 0 50.27 125.68"><defs><style>.cls-1{fill:#336;}</style></defs><g id="Layer_2" data-name="Layer 2"><g id="Layer_1-2" data-name="Layer 1"><path id="DNA" class="cls-1" d="M34.52,107.4C31,103.76,26.69,100.08,22.31,96c-2.1,1.69-4,3.32-5.67,4.92,5.17,4.34,10,7.7,13.88,10.88,9.7,7.42,12.85,14.25,14,13.9.51-.17.48-2.28-1-5.72S39,112,34.52,107.4Zm7.4-74.61a72.87,72.87,0,0,1-5.42,6.1,32.61,32.61,0,0,1,2.74,4.37H31.62a1.4,1.4,0,1,0,0,2.79h8.86a22.73,22.73,0,0,1,1.18,4.48H23.47a1.4,1.4,0,1,0,0,2.8H41.88c0,.18,0,.35,0,.53a20.52,20.52,0,0,1-.33,4H17a1.4,1.4,0,1,0,0,2.79H40.85c-2.37,7.26-8.43,13.27-14.31,18.46C18.85,85.81,11.15,92.19,6.67,99.59a27.34,27.34,0,0,0-4,19.52c1,4.66,2.64,6.75,3.1,6.56s.32-.9.25-2.24H36a1.4,1.4,0,0,0,0-2.8H5.91c0-.55,0-1.15,0-1.79,0-.83.1-1.73.22-2.69H28.45a1.4,1.4,0,0,0,0-2.79H6.63a27.34,27.34,0,0,1,1.45-4.48h11a1.4,1.4,0,1,0,0-2.79H9.47a26.92,26.92,0,0,1,2.11-3.18c4.36-5.89,11.69-11.32,20-18,4.08-3.42,8.5-7.18,12.24-12.27a31.51,31.51,0,0,0,6.47-18.8A30.26,30.26,0,0,0,46,38.54,38.51,38.51,0,0,0,41.92,32.79ZM15.75,18.28c3.48,3.64,7.82,7.32,12.2,11.43,2.11-1.69,4-3.32,5.68-4.93-5.17-4.33-10-7.69-13.88-10.87C10.05,6.49,6.9-.33,5.77,0c-.51.17-.48,2.28,1,5.72S11.23,13.67,15.75,18.28ZM14.26,5.05H44.35c0,.56,0,1.15,0,1.79,0,.83-.1,1.73-.22,2.69H21.86a1.4,1.4,0,1,0,0,2.79H43.63a26.34,26.34,0,0,1-1.44,4.48H31.3a1.4,1.4,0,0,0,0,2.8h9.5a27.76,27.76,0,0,1-2.11,3.18c-4.36,5.89-11.69,11.32-20,18C14.63,44.17,10.21,47.93,6.46,53A31.57,31.57,0,0,0,0,71.82,30.26,30.26,0,0,0,4.23,87.14a38.51,38.51,0,0,0,4.12,5.75,72.81,72.81,0,0,1,5.41-6.09A34.37,34.37,0,0,1,11,82.42h7.62a1.4,1.4,0,1,0,0-2.79H10.38a1.42,1.42,0,0,0-.55.11,22.34,22.34,0,0,1-1.22-4.59H26.8a1.4,1.4,0,1,0,0-2.79H8.39c0-.18,0-.36,0-.54a20.52,20.52,0,0,1,.33-3.95H33.26a1.4,1.4,0,0,0,0-2.79H9.42c2.37-7.26,8.43-13.27,14.31-18.46,7.69-6.75,15.39-13.13,19.87-20.54a27.36,27.36,0,0,0,4-19.51C46.63,1.91,45-.18,44.5,0s-.32.89-.25,2.24h-30a1.4,1.4,0,0,0,0,2.8Z"/></g></g></svg>