<svg xmlns="http://www.w3.org/2000/svg" viewBox="0 0 15.87 26.33"><defs><style>.cls-1{fill:#fff;}</style></defs><g id="Layer_2" data-name="Layer 2"><g id="Navbar"><path class="cls-1" d="M5,3.83c1.1.76,2.47,1.53,3.85,2.39.67-.35,1.27-.69,1.79-1C9,4.28,7.45,3.58,6.23,2.91,3.17,1.36,2.18-.07,1.82,0c-.16,0-.15.48.3,1.2A10.21,10.21,0,0,0,5,3.83ZM2.63,19.46c.52-.44,1.1-.86,1.71-1.28a8.1,8.1,0,0,1-.86-.91H5.89c.24,0,.44-.14.44-.3s-.2-.29-.44-.29H3.09a3.29,3.29,0,0,1-.37-.94H8.46c.24,0,.44-.13.44-.29s-.2-.29-.44-.29H2.65V15a2.84,2.84,0,0,1,.1-.82H10.5c.24,0,.44-.13.44-.29s-.2-.3-.44-.3H3c.75-1.52,2.66-2.78,4.52-3.86C9.92,8.35,12.35,7,13.76,5.46A4.17,4.17,0,0,0,15,1.38c-.3-1-.83-1.42-1-1.38S14,.19,14,.47H4.49c-.24,0-.44.13-.44.29s.2.3.44.3H14v.37a4,4,0,0,1-.07.57h-7c-.25,0-.44.13-.44.29s.19.29.44.29h6.88a4.06,4.06,0,0,1-.46.94H9.85c-.24,0-.44.13-.44.29s.2.29.44.29h3a5.3,5.3,0,0,1-.67.67,36.19,36.19,0,0,1-6.3,3.77A20,20,0,0,0,2,11.11,5.37,5.37,0,0,0,0,15a4.83,4.83,0,0,0,1.33,3.21A9.87,9.87,0,0,0,2.63,19.46Zm8.27,3C9.8,21.74,8.43,21,7,20.1c-.66.36-1.26.7-1.79,1,1.63.9,3.16,1.61,4.38,2.27,3.07,1.56,4.06,3,4.42,2.91.15,0,.15-.47-.31-1.19A9.86,9.86,0,0,0,10.9,22.5Zm.46,2.77H1.87a2.41,2.41,0,0,1,0-.38,4.07,4.07,0,0,1,.07-.56H9c.24,0,.44-.13.44-.29s-.2-.29-.44-.29H2.09a5.07,5.07,0,0,1,.46-.94H6c.24,0,.44-.13.44-.3s-.2-.29-.44-.29H3a6,6,0,0,1,.67-.66A35.58,35.58,0,0,1,10,17.79a20.31,20.31,0,0,0,3.87-2.57,5.44,5.44,0,0,0,2-3.94,4.91,4.91,0,0,0-1.34-3.21,9.25,9.25,0,0,0-1.3-1.2,20,20,0,0,1-1.71,1.28,6.65,6.65,0,0,1,.86.91H10c-.24,0-.44.13-.44.29s.2.3.44.3h2.61a.47.47,0,0,0,.17,0,3.52,3.52,0,0,1,.39,1H7.41c-.25,0-.44.13-.44.29s.19.29.44.29h5.81v.11a2.86,2.86,0,0,1-.1.83H5.37c-.24,0-.44.13-.44.29s.2.29.44.29h7.52c-.74,1.53-2.66,2.78-4.51,3.87C6,18,3.52,19.31,2.1,20.86A4.21,4.21,0,0,0,.84,25c.31,1,.84,1.41,1,1.37s.1-.18.08-.47h9.46c.25,0,.45-.13.45-.29S11.61,25.27,11.36,25.27Z"/></g></g></svg>