<svg xmlns="http://www.w3.org/2000/svg" viewBox="0 0 95.59 38.23">
  <defs>
    <style>
      .cls-2 {
        fill: #fff;
      }
    </style>
  </defs>
  <g id="Layer_2" data-name="Layer 2">
    <g id="Layer_1-2" data-name="Layer 1">
      <path
        id="DNA"
        class="cls-2"
        d="M13.91,26.26c2.76-2.65,5.56-6,8.69-9.29-1.29-1.6-2.52-3-3.75-4.31-3.29,3.93-5.85,7.61-8.27,10.55C4.94,30.59-.25,33,0,33.85c.13.38,1.74.36,4.35-.73A32.34,32.34,0,0,0,13.91,26.26Zm56.74,5.63A55.45,55.45,0,0,1,66,27.76a24.64,24.64,0,0,1-3.33,2.08V24.05a1.06,1.06,0,1,0-2.12,0v6.74a16.61,16.61,0,0,1-3.41.89V17.85a1.07,1.07,0,0,0-2.13,0v14h-.41a15.58,15.58,0,0,1-3-.25V12.93a1.06,1.06,0,0,0-2.12,0V31.07c-5.52-1.8-10.09-6.41-14-10.89-5.13-5.84-10-11.7-15.62-15.11A20.82,20.82,0,0,0,5,2C1.45,2.77-.13,4,0,4.38s.68.25,1.7.2V27.41a1.07,1.07,0,1,0,2.13,0V4.5H5.21c.63,0,1.31.08,2,.17v17a1.06,1.06,0,1,0,2.12,0V5.05a20.08,20.08,0,0,1,3.41,1.1v8.34a1.06,1.06,0,0,0,2.12,0V7.2a20.31,20.31,0,0,1,2.42,1.61C21.8,12.12,25.93,17.7,31,24a53,53,0,0,0,9.33,9.32,24,24,0,0,0,14.29,4.91A23,23,0,0,0,66.28,35,30.83,30.83,0,0,0,70.65,31.89ZM81.69,12c-2.77,2.64-5.57,5.95-8.69,9.28,1.28,1.6,2.52,3,3.74,4.32C80,21.64,82.59,18,85,15,90.66,7.64,95.84,5.25,95.58,4.38c-.13-.38-1.73-.36-4.35.74A31.83,31.83,0,0,0,81.69,12Zm10.06-1.13V33.73c-.42,0-.88,0-1.36,0s-1.32-.07-2-.16V16.63a1.06,1.06,0,1,0-2.12,0V33.19a21.33,21.33,0,0,1-3.41-1.1V23.81a1.06,1.06,0,0,0-2.12,0V31a19.17,19.17,0,0,1-2.42-1.61c-4.48-3.31-8.6-8.89-13.67-15.19a53.41,53.41,0,0,0-9.34-9.31A24,24,0,0,0,41,0,22.89,22.89,0,0,0,29.32,3.22a29.62,29.62,0,0,0-4.38,3.13,57.05,57.05,0,0,1,4.64,4.12A25.58,25.58,0,0,1,32.9,8.39v5.8a1.07,1.07,0,0,0,2.13,0V7.89a1.16,1.16,0,0,0-.09-.41,16.64,16.64,0,0,1,3.49-.93V20.39a1.07,1.07,0,0,0,2.13,0v-14H41a15.58,15.58,0,0,1,3,.24V25.29a1.06,1.06,0,1,0,2.12,0V7.16c5.53,1.81,10.1,6.41,14,10.89,5.14,5.85,10,11.71,15.62,15.11A20.86,20.86,0,0,0,90.6,36.21c3.54-.75,5.13-2,5-2.36s-.68-.25-1.7-.2V10.85a1.07,1.07,0,0,0-2.13,0Z"
      />
    </g>
  </g>
</svg>
