<svg xmlns="http://www.w3.org/2000/svg" xmlns:xlink="http://www.w3.org/1999/xlink" viewBox="0 0 565.89 671.8">
  <defs>
    <style>
      .cls-5 {
        fill: url(#linear-gradient);
      }
    </style>
    <linearGradient id="linear-gradient" y1="335.9" x2="565.89" y2="335.9" gradientUnits="userSpaceOnUse">
      <stop offset="0" stop-color="#fff" />
      <stop offset="0.16" stop-color="#d7d7ea" />
      <stop offset="0.33" stop-color="#b0b0d7" />
      <stop offset="0.51" stop-color="#9292c7" />
      <stop offset="0.68" stop-color="#7c7cbc" />
      <stop offset="0.85" stop-color="#6f6fb5" />
      <stop offset="1" stop-color="#6b6bb3" />
    </linearGradient>
  </defs>
  <g id="Layer_2" data-name="Layer 2">
    <g id="Hero">
      <path
        id="DNA"
        class="cls-5"
        d="M101.44,171c26.64,4.89,57.25,7.26,89.31,11.36,3.84-14,7.05-27.1,9.24-39.38-36.23-2.6-68-2-94.86-3.69C39.35,137.53,4.09,117.68.24,122.76c-1.66,2.32,5.11,11.46,22.23,21.94C39.44,155.39,67.2,165.13,101.44,171Zm203,349a390.63,390.63,0,0,1,4.42-43.71,176.73,176.73,0,0,1-25.72-10.47l33.26-24a7.52,7.52,0,1,0-8.81-12.19l-38.68,28a119.86,119.86,0,0,1-19.27-15.86L329,384.37a7.52,7.52,0,1,0-8.81-12.19l-80.35,58.06c-.58-.78-1.17-1.53-1.73-2.33a108.37,108.37,0,0,1-11-18.24l107.18-77.45a7.52,7.52,0,0,0-8.8-12.19L221.43,395.24c-12.57-39.17-5.08-84.49,4.25-125.7,12.26-53.72,25.75-105.85,21.94-152.3-3-47-25.85-81-44.08-97.81C184.58,2.17,170.72-1.68,169.33.59c-1.08,1.55,1.41,4.9,5.94,10.58l-131,94.69a7.52,7.52,0,0,0,8.81,12.19l131.5-95c1.81,2.4,3.7,5,5.66,7.85,2.48,3.72,5,7.87,7.51,12.41l-97.38,70.37a7.52,7.52,0,1,0,8.8,12.19L204.35,57a144.53,144.53,0,0,1,7.81,24.14l-47.88,34.6A7.52,7.52,0,1,0,173.09,128l41.85-30.24a149.46,149.46,0,0,1,.78,20.56c-.42,39.42-15.34,86.24-30.46,141.45-7.09,27.8-14.48,58.13-14.77,92.2-.7,33.69,8.68,72,31.06,102.41,17.4,24,41.58,42.87,66.79,53.54A212,212,0,0,0,304.46,520Zm160-19.25c-26.63-4.89-57.25-7.28-89.31-11.37-3.84,14-7,27.1-9.23,39.38,36.22,2.6,67.94,2,94.85,3.69,65.78,1.79,101,21.63,104.89,16.55,1.65-2.31-5.12-11.46-22.24-21.94C526.45,516.4,498.69,506.66,464.45,500.78Zm48.23,53.09-131.33,94.9c-1.81-2.41-3.7-5-5.66-7.85-2.48-3.72-5-7.86-7.51-12.41l97.22-70.25a7.52,7.52,0,0,0-8.81-12.19l-95,68.68a144.41,144.41,0,0,1-7.81-24.13l47.49-34.32a7.52,7.52,0,0,0-8.8-12.19l-41.46,30a146.17,146.17,0,0,1-.78-20.55c.41-39.43,15.33-86.25,30.46-141.46,7.08-27.8,14.47-58.12,14.76-92.2.71-33.69-8.67-72-31.06-102.41-17.39-24-41.58-42.86-66.78-53.54a211.79,211.79,0,0,0-36.13-12.14A388.24,388.24,0,0,1,257,195.48,177.65,177.65,0,0,1,282.74,206l-33.27,24a7.52,7.52,0,1,0,8.81,12.19l36.11-26.09a7.75,7.75,0,0,0,2.05-2.23,120.06,120.06,0,0,1,19.79,16.22l-79.39,57.37a7.52,7.52,0,1,0,8.81,12.19L326,241.55c.58.78,1.17,1.54,1.73,2.34a107.77,107.77,0,0,1,11,18.24L231.63,339.55a7.51,7.51,0,1,0,8.8,12.18l104-75.18c12.57,39.19,5.07,84.51-4.26,125.71C328,456,314.46,508.12,318.27,554.57c3,47,25.86,81,44.09,97.8,19,17.26,32.83,21.11,34.21,18.85,1.09-1.56-1.41-4.91-5.95-10.6l130.87-94.57a7.52,7.52,0,1,0-8.81-12.18Z"
      />
    </g>
  </g>
</svg>
