<svg xmlns="http://www.w3.org/2000/svg" viewBox="0 0 20.83 20.83">
  <defs>
    <style>
      .cls-8 {
        fill: #336;
      }
    </style>
  </defs>
  <g id="Layer_2" data-name="Layer 2">
    <g id="Layer_1-2" data-name="Layer 1">
      <path
        class="cls-8"
        d="M10.42,0a10.4,10.4,0,0,0-8,17s0,0,0,0A10.39,10.39,0,0,0,6.33,20l0,0,.37.14.15.06.32.11.21.06.28.08.26.07.26.06.29.06.24,0,.33.05.21,0,.38,0,.18,0H11l.17,0a2.43,2.43,0,0,0,.38,0l.21,0,.33-.05.24,0,.29-.06.27-.06.25-.06.29-.09.21-.06.32-.11.15-.06.36-.14.06,0a10.54,10.54,0,0,0,3.93-2.94h0a10.42,10.42,0,0,0-8-17Zm4.22,19.17h0l-.37.17-.09,0-.34.13-.14.05-.3.11-.19.05-.28.08-.23.06-.24.06-.27.05L12,20l-.31,0-.2,0c-.11,0-.23,0-.35,0h-.16l-.51,0-.52,0H9.74l-.35,0-.2,0-.3,0-.22,0-.27-.05-.25-.06-.23-.06-.27-.08-.19-.05-.31-.11L7,19.52l-.34-.13-.08,0-.38-.17h0a9.49,9.49,0,0,1-3.15-2.42,7.65,7.65,0,0,1,5-5.26l.15.08.09,0a2.2,2.2,0,0,0,.31.15l.25.1.05,0a4.48,4.48,0,0,0,1.51.26,4.42,4.42,0,0,0,1.5-.26l.05,0,.25-.1a2.3,2.3,0,0,0,.32-.15l.08,0,.15-.08a7.64,7.64,0,0,1,5,5.26A9.7,9.7,0,0,1,14.64,19.17ZM6.6,7.64a3.82,3.82,0,1,1,5.89,3.2,2.86,2.86,0,0,1-.42.24l-.05,0a3.88,3.88,0,0,1-3.2,0l-.06,0-.42-.24A3.8,3.8,0,0,1,6.6,7.64Zm11.71,8.44A8.36,8.36,0,0,0,13.43,11a4.52,4.52,0,1,0-6,0,8.34,8.34,0,0,0-4.87,5.09A9.58,9.58,0,0,1,.69,10.42a9.73,9.73,0,1,1,19.45,0A9.64,9.64,0,0,1,18.31,16.08Z"
      />
    </g>
  </g>
</svg>
